<svg width="622" height="622" viewBox="0 0 622 622" fill="none" xmlns="http://www.w3.org/2000/svg">
<path d="M310.83 284.927C331.322 284.927 351.354 278.851 368.392 267.466C385.431 256.081 398.711 239.9 406.553 220.967C414.395 202.035 416.447 181.203 412.449 161.104C408.451 141.006 398.583 122.544 384.093 108.054C369.603 93.5641 351.142 83.6962 331.043 79.6984C310.945 75.7006 290.112 77.7524 271.18 85.5944C252.248 93.4364 236.066 106.716 224.681 123.755C213.297 140.793 207.22 160.825 207.22 181.317C207.22 208.797 218.136 235.15 237.567 254.581C256.997 274.011 283.351 284.927 310.83 284.927Z" fill="white"/>
<path d="M466.245 543.952C473.114 543.952 479.703 541.223 484.561 536.366C489.418 531.508 492.147 524.92 492.147 518.05C492.147 469.961 473.044 423.843 439.041 389.839C405.037 355.835 358.918 336.732 310.83 336.732C262.741 336.732 216.623 355.835 182.619 389.839C148.615 423.843 129.512 469.961 129.512 518.05C129.512 524.92 132.241 531.508 137.099 536.366C141.957 541.223 148.545 543.952 155.415 543.952H466.245Z" fill="white"/>
</svg>
