<svg width="622" height="622" viewBox="0 0 622 622" fill="none" xmlns="http://www.w3.org/2000/svg">
<path d="M536.441 499.659L448.372 411.85C476.787 375.65 492.205 330.947 492.147 284.927C492.147 243.943 479.994 203.879 457.224 169.802C434.455 135.725 402.092 109.165 364.227 93.4813C326.363 77.7973 284.698 73.6937 244.501 81.6893C204.304 89.6849 167.381 109.421 138.401 138.401C109.421 167.381 89.6849 204.304 81.6893 244.501C73.6937 284.698 77.7973 326.363 93.4813 364.227C109.165 402.092 135.725 434.455 169.802 457.224C203.879 479.994 243.943 492.147 284.927 492.147C330.947 492.205 375.65 476.787 411.85 448.372L499.659 536.441C502.067 538.868 504.932 540.795 508.088 542.11C511.245 543.425 514.63 544.102 518.05 544.102C521.469 544.102 524.855 543.425 528.011 542.11C531.168 540.795 534.033 538.868 536.441 536.441C538.868 534.033 540.795 531.168 542.11 528.011C543.425 524.855 544.102 521.469 544.102 518.05C544.102 514.63 543.425 511.245 542.11 508.088C540.795 504.932 538.868 502.067 536.441 499.659ZM129.513 284.927C129.513 254.189 138.627 224.141 155.705 198.584C172.782 173.026 197.054 153.106 225.453 141.343C253.851 129.58 285.1 126.502 315.247 132.499C345.395 138.496 373.087 153.297 394.822 175.033C416.558 196.768 431.359 224.46 437.356 254.608C443.353 284.755 440.275 316.004 428.512 344.402C416.749 372.801 396.829 397.073 371.271 414.15C345.714 431.227 315.666 440.342 284.927 440.342C243.709 440.342 204.178 423.968 175.033 394.822C145.887 365.676 129.513 326.146 129.513 284.927Z" fill="white"/>
</svg>
